PathFileType	4	(X/Y/Z)	Patient4_TMGait_0pt4_03_left_14.trc.trc
DataRate	CameraRate	NumFrames	NumMarkers	Units	OrigDataRate	OrigDataStartFrame	OrigNumFrames
74.074074074074	74.074074074074	4	33	mm	74.074074074074	1	       141
Frame#	Time	Sacral			L.Shoulder			Chest			R.Shoulder			Neck			R.ASIS			L.ASIS			R.Thigh.Superior			R.Thigh.Lateral			R.Thigh.Inferior			R.Patella			L.Thigh.Superior			L.Thigh.Lateral			L.Thigh.Inferior			L.Patella			L.Shank.Superior			L.Shank.Lateral			L.Shank.Inferior			R.Shank.Superior			R.Shank.Lateral			R.Shank.Inferior			R.Heel			R.Midfoot.Superior			R.Midfoot.Lateral			R.Toe			L.Heel			L.Midfoot.Lateral			L.Midfoot.Superior			L.Toe			L.Elbow			L.Wrist			R.Elbow			R.Wrist			
		X1	Y1	Z1	X2	Y2	Z2	X3	Y3	Z3	X4	Y4	Z4	X5	Y5	Z5	X6	Y6	Z6	X7	Y7	Z7	X8	Y8	Z8	X9	Y9	Z9	X10	Y10	Z10	X11	Y11	Z11	X12	Y12	Z12	X13	Y13	Z13	X14	Y14	Z14	X15	Y15	Z15	X16	Y16	Z16	X17	Y17	Z17	X18	Y18	Z18	X19	Y19	Z19	X20	Y20	Z20	X21	Y21	Z21	X22	Y22	Z22	X23	Y23	Z23	X24	Y24	Z24	X25	Y25	Z25	X26	Y26	Z26	X27	Y27	Z27	X28	Y28	Z28	X29	Y29	Z29	X30	Y30	Z30	X31	Y31	Z31	X32	Y32	Z32	X33	Y33	Z33	

1	18.030000000000	836.670136656416	1008.473915192560	539.789904654018	1002.457740317109	1436.994347453896	350.898430325769	1119.515765198436	1366.056489503543	501.542652256486	1054.731750710572	1438.623239866628	683.484992543218	1002.706539929568	1498.611459457678	509.414745138935	1072.868972673247	945.501448268312	644.162497186600	1042.340037247375	966.873893784732	371.442923107904	1107.437404276916	742.195631638433	614.640225793553	1023.914371101998	632.816104458191	672.697818451292	1100.545214928006	581.808841192370	592.139110232477	1098.967336424989	493.334733422265	597.144374278499	1126.443573053037	786.006158783162	382.385345001427	1073.192911951422	661.060401759538	300.967143901264	1184.405558755183	600.875465354280	344.303941236190	1201.191376671392	517.114540217867	333.978616494180	1148.401512063041	443.411449636799	328.233712281406	1016.948129575836	371.134949323304	285.537782888402	1040.195916904230	238.994010360296	332.470615952915	1068.114206539866	404.644897514711	600.408784805250	992.761987621678	301.063997487587	658.701121024951	1032.876238606221	207.423585065335	591.535671057293	895.525897477745	43.902404418389	555.281161331063	1067.555269736542	97.205789457791	590.568508669325	979.564791327291	37.091263735388	629.039430463966	1187.699163320589	43.545072566380	615.031142513217	875.383078948016	123.396283033358	378.276090154380	934.836342250817	103.188568972307	289.065674629137	1036.213062105319	137.704640224972	305.010002000487	1137.872167675149	54.668114179407	257.206749624667	935.873194268828	1090.614513402169	235.848242941629	1037.223044892408	849.264858576092	200.264908003147	1072.579204217674	1097.174514276674	822.239505846332	1244.026599836971	902.734046185194	799.415020045210	
2	18.043500000000	836.639723377391	1008.187476279562	541.369067454135	1001.051619286815	1437.168149616204	352.528529187799	1119.110423941276	1365.913435401918	502.228358939721	1055.620184389572	1438.119075568289	684.782456668645	1002.502797779626	1498.492060746096	511.023415842316	1072.494776921747	945.063905546129	644.233121360405	1041.287156625574	967.126714058842	371.609732679938	1105.595354412544	741.867553836307	613.966031195202	1022.260518178344	632.669344117710	673.091817716233	1097.968411446353	581.395800617246	592.179559493637	1095.849348362432	492.886858897246	597.489059365719	1124.944773070290	786.054627710277	382.204927207412	1071.823118940904	661.027338736117	300.782504150322	1182.565473290756	600.839232285848	344.843747209782	1200.509831852254	519.127407111004	334.125591098667	1151.559752692246	445.188635749616	327.244826126420	1025.801633885762	365.875000264585	283.428335059933	1057.497342716167	235.620507019353	328.810683717909	1064.479687901832	404.137081741528	600.687677296435	988.522522180520	300.941864800439	658.854915034819	1028.060610780031	207.090892506018	591.646162714285	889.808789333704	44.035194007999	555.287295728965	1061.936396929785	97.158040124741	590.631190469612	973.860895744599	37.103351242522	629.044920421837	1181.996676443706	43.339721410993	615.177833191612	901.736238083362	110.271595481649	373.285549627776	961.751542778596	94.571173692829	283.971599966529	1060.276444467386	134.787166710440	300.285716610784	1166.077346636296	58.862512811465	251.858294643912	930.787400179683	1091.709950091617	237.364452594113	1026.283910661907	848.556306088932	200.180741423138	1079.154344660602	1096.926081507330	822.854710591820	1254.907464624278	907.052609248193	797.944641846550	
3	18.057000000000	836.585960030198	1007.901810316515	542.846605610336	999.706680857661	1437.324090522187	354.104425558683	1118.719296873654	1365.745250879058	502.892532730733	1056.471894922200	1437.585581284007	686.041880518805	1002.306931984130	1498.354134462830	512.591894270260	1072.115863960098	944.632132444088	644.309260038162	1040.275001103892	967.328481762078	371.764495339109	1103.790934097147	741.522223027062	613.346563015092	1020.589830756722	632.500382061890	673.468235003052	1095.412221283297	580.961799463492	592.231179140577	1092.750474649822	492.425661288027	597.813114065864	1123.351086008143	785.926139422750	382.034081481617	1070.271785088383	660.906492955540	300.547258083494	1180.496666123940	600.616225552420	345.389912194919	1199.573706437065	520.994532340770	334.333377716601	1154.498985659170	446.934918857715	326.311082363614	1034.639989995715	360.677322397583	281.247258085073	1074.702121074213	232.476579762525	325.212184279729	1060.868092070183	403.619254858008	600.942452542537	984.312523035590	300.806280726250	658.989298838509	1023.270779595046	206.753411510125	591.737055021610	884.124769811180	44.155363081754	555.292746384265	1056.340309462021	97.105503409476	590.678791782999	968.187423016506	37.117342644053	629.053426902695	1176.323019209516	43.137299142804	615.321585568697	928.088104247843	97.596740652406	368.244652473789	988.749370732529	86.305144549917	278.929678028541	1084.341443487766	132.144108807137	295.686234468897	1194.227622482917	63.288932054483	246.881689587840	925.763055087461	1092.785328639009	238.857982281912	1015.438698377350	847.861150980364	200.146288025220	1085.636536400949	1096.641450991379	823.376400799273	1265.654008700642	911.337205610262	796.398787228004	
4	18.070500000000	836.487172602594	1007.623181636588	544.126443692783	998.484917920560	1437.447746891791	355.562273604004	1118.357807105195	1365.534859647731	503.505661162329	1057.250669936365	1437.008280902709	687.213959226715	1002.127477886973	1498.186094966072	514.064593856843	1071.727860615499	944.209996526011	644.379552178756	1039.333525173686	967.444029364602	371.886994467861	1102.051630720969	741.142876902004	612.803482285257	1018.889621581236	632.292636084312	673.794499534382	1092.888849487981	580.490521414645	592.278004994977	1089.684404129758	491.940552573636	598.076886126828	1121.608970490926	785.508655014621	381.877899408203	1068.435828191662	660.641336334901	300.232636895323	1178.072237422667	600.092224344453	345.939026471965	1198.230924213849	522.616130110486	334.636743830250	1157.042604538255	448.618661656004	325.480271632952	1043.353265182092	355.650627212874	278.992475888649	1091.555114341930	229.770397625271	321.774878580366	1057.299035216584	403.084669641260	601.136869896732	980.164302510796	300.648510105754	659.081723193406	1018.535092508931	206.407961453599	591.784625293506	878.513211958524	44.251957001608	555.296308230783	1050.798374626986	97.046360266759	590.700327112953	962.579988499866	37.132883423684	629.062766606536	1170.713798997472	42.941896940479	615.458914381461	954.152976159938	85.834628319038	363.215773661857	1015.584821210178	78.741560478625	274.065751892635	1108.134630455629	130.018066333016	291.370465122332	1221.961616165813	68.094199702057	242.594869475094	920.892613776499	1093.818122440175	240.294999853139	1004.826364917910	847.194687302072	200.204773974006	1091.900375110167	1096.296316411972	823.706461717232	1276.083120384760	915.553082597645	794.698125386609	
